<svg width="14" height="175" viewBox="0 0 14 175" fill="none" xmlns="http://www.w3.org/2000/svg">
<path d="M7.95605 0.628906C9.71517 0.628906 11.071 1.10059 12.0234 2.04395C12.8529 2.86426 13.2676 3.90788 13.2676 5.1748C13.2676 6.87012 12.7116 8.1097 11.5996 8.89355C10.9753 9.3265 10.3486 9.55892 9.71973 9.59082L9.71973 7.48535C10.2028 7.34863 10.5674 7.17318 10.8135 6.95898C11.251 6.57617 11.4697 6.00879 11.4697 5.25684C11.4697 4.49121 11.1598 3.88737 10.54 3.44531C9.9248 3.00325 9.05208 2.78223 7.92187 2.78223C6.79167 2.78223 5.94401 3.01465 5.37891 3.47949C4.81836 3.94889 4.53809 4.54362 4.53809 5.26367C4.53809 6.00195 4.77962 6.56478 5.2627 6.95215C5.52246 7.16634 5.91211 7.34407 6.43164 7.48535L6.43164 9.57031C5.33333 9.38802 4.4401 8.9209 3.75195 8.16894C3.0638 7.42155 2.71973 6.46224 2.71973 5.29101C2.71973 3.8418 3.18457 2.70247 4.11426 1.87305C5.0485 1.04362 6.3291 0.628906 7.95605 0.628906ZM4.37402 14.3691C4.37402 14.9388 4.57682 15.3763 4.98242 15.6816C5.38802 15.987 5.96452 16.1396 6.71191 16.1396C7.45931 16.1396 8.03353 15.987 8.43457 15.6816C8.84017 15.3763 9.04297 14.9388 9.04297 14.3691C9.04297 13.7995 8.84017 13.3597 8.43457 13.0498C8.03353 12.7445 7.45931 12.5918 6.71191 12.5918C5.96452 12.5918 5.38802 12.7445 4.98242 13.0498C4.57682 13.3597 4.37402 13.7995 4.37402 14.3691ZM6.71191 18.1836C5.61816 18.1836 4.68164 17.8691 3.90234 17.2402C3.1276 16.6113 2.74023 15.6566 2.74023 14.376C2.74023 13.0954 3.1276 12.1406 3.90234 11.5117C4.68164 10.8828 5.61816 10.5684 6.71191 10.5684C7.78743 10.5684 8.7194 10.8828 9.50781 11.5117C10.2962 12.1406 10.6904 13.0954 10.6904 14.376C10.6904 15.6566 10.2962 16.6113 9.50781 17.2402C8.7194 17.8691 7.78743 18.1836 6.71191 18.1836ZM10.6289 23.7139C10.6289 24.484 10.4261 25.113 10.0205 25.6006C9.61947 26.0928 8.95182 26.3389 8.01758 26.3389L3 26.3389L3 24.3428L7.53223 24.3428C7.92415 24.3428 8.22493 24.2904 8.43457 24.1855C8.81738 23.9941 9.00879 23.6296 9.00879 23.0918C9.00879 22.431 8.72851 21.9775 8.16797 21.7314C7.87174 21.6038 7.49349 21.54 7.0332 21.54L3 21.54L3 19.5986L10.4375 19.5986L10.4375 21.4785L9.35058 21.4785C9.7334 21.7292 10.0091 21.9661 10.1777 22.1895C10.4785 22.5905 10.6289 23.0986 10.6289 23.7139ZM9.04297 31.083C9.04297 30.6318 8.90169 30.2809 8.61914 30.0303C8.33659 29.7842 7.95377 29.6292 7.4707 29.5654L7.4707 32.5937C7.98568 32.5618 8.37532 32.4046 8.63965 32.1221C8.90853 31.8441 9.04297 31.4977 9.04297 31.083ZM10.6494 31.083C10.6494 31.7028 10.5332 32.2611 10.3008 32.7578C10.0684 33.2546 9.7015 33.6647 9.20019 33.9883C8.75814 34.2799 8.24544 34.4691 7.66211 34.5557C7.32031 34.6058 6.82812 34.6263 6.18555 34.6172L6.18555 29.5176C5.43815 29.5449 4.91406 29.7796 4.61328 30.2217C4.42643 30.4906 4.33301 30.8141 4.33301 31.1924C4.33301 31.5934 4.44694 31.9193 4.6748 32.1699C4.79785 32.3066 4.96875 32.4274 5.1875 32.5322L5.1875 34.5215C4.74544 34.4714 4.29655 34.2412 3.84082 33.8311C3.11621 33.193 2.7539 32.2998 2.7539 31.1514C2.7539 30.2034 3.05924 29.3672 3.66992 28.6426C4.2806 27.918 5.27409 27.5557 6.65039 27.5557C7.9401 27.5557 8.92904 27.8815 9.61719 28.5332C10.3053 29.1895 10.6494 30.0394 10.6494 31.083ZM7.77832 40.3867C8.05631 40.3503 8.30696 40.2568 8.53027 40.1064C8.83105 39.8877 8.98144 39.5482 8.98144 39.0879C8.98144 38.4316 8.6556 37.9827 8.0039 37.7412C7.65755 37.6136 7.19726 37.5498 6.62305 37.5498C6.07617 37.5498 5.63639 37.6136 5.30371 37.7412C4.68392 37.9736 4.37402 38.4111 4.37402 39.0537C4.37402 39.5094 4.49707 39.833 4.74316 40.0244C4.98926 40.2158 5.30827 40.332 5.70019 40.373L5.70019 42.3623C5.10775 42.3167 4.5472 42.1025 4.01855 41.7197C3.16634 41.109 2.74023 40.2044 2.74023 39.0059C2.74023 37.8073 3.0957 36.9255 3.80664 36.3604C4.51758 35.7952 5.44043 35.5127 6.57519 35.5127C7.85579 35.5127 8.85156 35.8249 9.5625 36.4492C10.2734 37.0736 10.6289 37.9349 10.6289 39.0332C10.6289 39.9674 10.4193 40.7308 10 41.3232C9.58073 41.9202 8.84017 42.2734 7.77832 42.3828L7.77832 40.3867ZM8.99512 42.9639L10.3828 42.9639L10.3828 44.0029L12.4609 44.0029L12.4609 45.9307L10.3828 45.9307L10.3828 47.1406L8.99512 47.1406L8.99512 45.9307L5.05762 45.9307C4.75228 45.9307 4.56087 45.9694 4.4834 46.0469C4.41048 46.1243 4.37402 46.3613 4.37402 46.7578C4.37402 46.8171 4.37402 46.8786 4.37402 46.9424C4.37858 47.0107 4.38314 47.0768 4.38769 47.1406L2.93164 47.1406L2.89746 46.2178C2.86556 45.2972 3.02506 44.6683 3.37597 44.3311C3.59928 44.1123 3.94336 44.0029 4.4082 44.0029L8.99512 44.0029L8.99512 42.9639ZM6.62304 52.5C6.54557 52.377 6.48177 52.2516 6.43164 52.124C6.38607 52.001 6.34277 51.8301 6.30176 51.6113L6.21972 51.1738C6.14681 50.7637 6.05794 50.4697 5.95312 50.292C5.77539 49.9912 5.49967 49.8408 5.12597 49.8408C4.79329 49.8408 4.55176 49.932 4.40136 50.1143C4.25553 50.3011 4.18261 50.5267 4.18261 50.791C4.18261 51.2103 4.30566 51.5954 4.55176 51.9463C4.79785 52.3018 5.24674 52.4863 5.89844 52.5L6.62304 52.5ZM7.53222 51.3174C7.5778 51.6774 7.63476 51.9349 7.70312 52.0898C7.82161 52.3678 8.00618 52.5068 8.25683 52.5068C8.56217 52.5068 8.77181 52.3997 8.88574 52.1855C9.00423 51.9759 9.06347 51.666 9.06347 51.2559C9.06347 50.7956 8.94954 50.4697 8.72168 50.2783C8.55306 50.1416 8.32519 50.0505 8.03808 50.0049L8.03808 48.125C8.68978 48.166 9.22526 48.3483 9.64453 48.6719C10.3008 49.1868 10.6289 50.071 10.6289 51.3242C10.6289 52.14 10.4671 52.8646 10.1436 53.498C9.81998 54.1315 9.20931 54.4482 8.31152 54.4482L4.89355 54.4482C4.65657 54.4482 4.36946 54.4528 4.03222 54.4619C3.77702 54.4756 3.60384 54.5143 3.51269 54.5781C3.42155 54.6419 3.34635 54.7376 3.28711 54.8652L3 54.8652L3 52.7461C3.15039 52.6868 3.29166 52.6458 3.42383 52.623C3.55599 52.6003 3.70638 52.582 3.875 52.5684C3.58333 52.2995 3.33496 51.9896 3.12988 51.6387C2.88834 51.2194 2.76758 50.7454 2.76758 50.2168C2.76758 49.5423 2.95898 48.984 3.34179 48.542C3.72916 48.1045 4.27604 47.8857 4.98242 47.8857C5.89844 47.8857 6.56152 48.2389 6.97168 48.9453C7.19498 49.3327 7.35449 49.9023 7.45019 50.6543L7.53222 51.3174ZM10.6289 58.9326C10.6289 59.3838 10.5286 59.7848 10.3281 60.1357C10.1322 60.4867 9.85872 60.7715 9.50781 60.9902L13.0625 60.9902L13.0625 62.9658L3 62.9658L3 61.0723L4.03222 61.0723C3.59017 60.7943 3.26888 60.4775 3.06836 60.1221C2.86784 59.7666 2.76758 59.3245 2.76758 58.7959C2.76758 57.9255 3.11849 57.1917 3.82031 56.5947C4.52669 56.0023 5.43131 55.7061 6.53418 55.7061C7.80566 55.7061 8.80599 55.9977 9.53515 56.5811C10.2643 57.1689 10.6289 57.9528 10.6289 58.9326ZM4.4082 59.3564C4.4082 59.9079 4.61328 60.3271 5.02343 60.6143C5.43359 60.9014 5.96452 61.0449 6.61621 61.0449C7.52767 61.0449 8.17936 60.8148 8.57129 60.3545C8.80827 60.0719 8.92676 59.7438 8.92676 59.3701C8.92676 58.8005 8.71028 58.3812 8.27734 58.1123C7.84896 57.848 7.31575 57.7158 6.67773 57.7158C5.98958 57.7158 5.43815 57.8503 5.02343 58.1191C4.61328 58.3926 4.4082 58.805 4.4082 59.3564ZM4.37402 68.0859C4.37402 68.6556 4.57682 69.0931 4.98242 69.3984C5.38802 69.7038 5.96452 69.8564 6.71191 69.8564C7.45931 69.8564 8.03353 69.7038 8.43457 69.3984C8.84017 69.0931 9.04297 68.6556 9.04297 68.0859C9.04297 67.5163 8.84017 67.0765 8.43457 66.7666C8.03353 66.4613 7.45931 66.3086 6.71191 66.3086C5.96452 66.3086 5.38802 66.4613 4.98242 66.7666C4.57682 67.0765 4.37402 67.5163 4.37402 68.0859ZM6.71191 71.9004C5.61816 71.9004 4.68164 71.5859 3.90234 70.957C3.1276 70.3281 2.74023 69.3734 2.74023 68.0928C2.74023 66.8122 3.1276 65.8574 3.90234 65.2285C4.68164 64.5996 5.61816 64.2852 6.71191 64.2852C7.78743 64.2852 8.7194 64.5996 9.50781 65.2285C10.2962 65.8574 10.6904 66.8122 10.6904 68.0928C10.6904 69.3734 10.2962 70.3281 9.50781 70.957C8.7194 71.5859 7.78743 71.9004 6.71191 71.9004ZM6.62304 81.3066C6.54557 81.1836 6.48177 81.0583 6.43164 80.9307C6.38606 80.8076 6.34277 80.6367 6.30175 80.418L6.21972 79.9805C6.14681 79.5703 6.05794 79.2764 5.95312 79.0986C5.77539 78.7979 5.49967 78.6475 5.12597 78.6475C4.79329 78.6475 4.55175 78.7386 4.40136 78.9209C4.25553 79.1077 4.18261 79.3333 4.18261 79.5977C4.18261 80.0169 4.30566 80.402 4.55175 80.7529C4.79785 81.1084 5.24674 81.293 5.89843 81.3066L6.62304 81.3066ZM7.53222 80.124C7.5778 80.484 7.63476 80.7415 7.70312 80.8965C7.82161 81.1745 8.00618 81.3135 8.25683 81.3135C8.56217 81.3135 8.77181 81.2064 8.88574 80.9922C9.00423 80.7826 9.06347 80.4727 9.06347 80.0625C9.06347 79.6022 8.94954 79.2764 8.72168 79.085C8.55306 78.9482 8.32519 78.8571 8.03808 78.8115L8.03808 76.9316C8.68978 76.9727 9.22526 77.1549 9.64453 77.4785C10.3008 77.9935 10.6289 78.8776 10.6289 80.1309C10.6289 80.9466 10.4671 81.6712 10.1436 82.3047C9.81998 82.9382 9.20931 83.2549 8.31152 83.2549L4.89355 83.2549C4.65657 83.2549 4.36946 83.2594 4.03222 83.2686C3.77701 83.2822 3.60384 83.321 3.51269 83.3848C3.42155 83.4486 3.34635 83.5443 3.28711 83.6719L3 83.6719L3 81.5527C3.15039 81.4935 3.29166 81.4525 3.42382 81.4297C3.55599 81.4069 3.70638 81.3887 3.875 81.375C3.58333 81.1061 3.33496 80.7962 3.12988 80.4453C2.88834 80.026 2.76757 79.5521 2.76757 79.0234C2.76757 78.349 2.95898 77.7907 3.34179 77.3486C3.72916 76.9111 4.27604 76.6924 4.98242 76.6924C5.89843 76.6924 6.56152 77.0456 6.97168 77.752C7.19498 78.1393 7.35449 78.709 7.45019 79.4609L7.53222 80.124ZM4.37402 88.334C4.37402 88.9036 4.57682 89.3411 4.98242 89.6465C5.38802 89.9518 5.96451 90.1045 6.71191 90.1045C7.45931 90.1045 8.03352 89.9518 8.43457 89.6465C8.84017 89.3411 9.04296 88.9036 9.04296 88.334C9.04296 87.7643 8.84017 87.3245 8.43457 87.0146C8.03352 86.7093 7.45931 86.5566 6.71191 86.5566C5.96451 86.5566 5.38802 86.7093 4.98242 87.0146C4.57682 87.3245 4.37402 87.7643 4.37402 88.334ZM6.71191 92.1484C5.61816 92.1484 4.68164 91.834 3.90234 91.2051C3.1276 90.5762 2.74023 89.6214 2.74023 88.3408C2.74023 87.0602 3.1276 86.1055 3.90234 85.4766C4.68164 84.8477 5.61816 84.5332 6.71191 84.5332C7.78743 84.5332 8.7194 84.8477 9.50781 85.4766C10.2962 86.1055 10.6904 87.0602 10.6904 88.3408C10.6904 89.6214 10.2962 90.5762 9.50781 91.2051C8.7194 91.834 7.78743 92.1484 6.71191 92.1484ZM4.5039 102.061C4.5039 102.895 4.81152 103.555 5.42675 104.043C6.04199 104.535 6.91699 104.781 8.05175 104.781C9.18196 104.781 10.0547 104.535 10.6699 104.043C11.2897 103.555 11.5996 102.895 11.5996 102.061C11.5996 101.227 11.292 100.561 10.6768 100.064C10.0615 99.5677 9.18652 99.3193 8.05175 99.3193C6.91699 99.3193 6.04199 99.5677 5.42675 100.064C4.81152 100.561 4.5039 101.227 4.5039 102.061ZM8.05175 106.887C6.24251 106.887 4.85709 106.379 3.8955 105.362C3.11165 104.601 2.71972 103.501 2.71972 102.061C2.71972 100.62 3.11165 99.5199 3.8955 98.7588C4.85709 97.738 6.24251 97.2275 8.05175 97.2275C9.89746 97.2275 11.2829 97.738 12.208 98.7588C12.9919 99.5199 13.3838 100.62 13.3838 102.061C13.3838 103.501 12.9919 104.601 12.208 105.362C11.2829 106.379 9.89746 106.887 8.05175 106.887ZM6.72558 113.477C7.2998 113.477 7.80794 113.344 8.25 113.08C8.69205 112.82 8.91308 112.396 8.91308 111.809C8.91308 111.102 8.57812 110.617 7.9082 110.353C7.55273 110.216 7.10156 110.147 6.55468 110.147C5.6888 110.147 5.0804 110.378 4.72949 110.838C4.52441 111.111 4.42187 111.435 4.42187 111.809C4.42187 112.351 4.63151 112.763 5.05078 113.046C5.47005 113.333 6.02832 113.477 6.72558 113.477ZM10.6152 112.369C10.6152 113.24 10.2939 113.976 9.65136 114.577C9.00878 115.183 8.06542 115.486 6.82128 115.486C5.50878 115.486 4.50846 115.19 3.82031 114.598C3.13216 114.01 2.78808 113.251 2.78808 112.321C2.78808 111.729 2.93619 111.237 3.23242 110.845C3.39648 110.631 3.63574 110.421 3.95019 110.216L0.067378 110.216L0.0673781 108.288L10.4512 108.288L10.4512 110.154L9.35058 110.154C9.67415 110.364 9.92936 110.587 10.1162 110.824C10.4489 111.257 10.6152 111.772 10.6152 112.369ZM9.04296 119.841C9.04296 119.39 8.90169 119.039 8.61914 118.788C8.33658 118.542 7.95377 118.387 7.4707 118.323L7.4707 121.352C7.98567 121.32 8.37532 121.162 8.63964 120.88C8.90852 120.602 9.04296 120.256 9.04296 119.841ZM10.6494 119.841C10.6494 120.461 10.5332 121.019 10.3008 121.516C10.0684 122.012 9.70149 122.423 9.20019 122.746C8.75813 123.038 8.24544 123.227 7.6621 123.313C7.32031 123.364 6.82812 123.384 6.18554 123.375L6.18554 118.275C5.43815 118.303 4.91406 118.537 4.61328 118.979C4.42643 119.248 4.333 119.572 4.333 119.95C4.333 120.351 4.44693 120.677 4.6748 120.928C4.79785 121.064 4.96874 121.185 5.18749 121.29L5.18749 123.279C4.74544 123.229 4.29654 122.999 3.84081 122.589C3.11621 121.951 2.7539 121.058 2.7539 119.909C2.7539 118.961 3.05924 118.125 3.66992 117.4C4.28059 116.676 5.27408 116.313 6.65039 116.313C7.9401 116.313 8.92903 116.639 9.61718 117.291C10.3053 117.947 10.6494 118.797 10.6494 119.841ZM10.6289 128.823C10.6289 129.593 10.4261 130.222 10.0205 130.71C9.61946 131.202 8.95182 131.448 8.01757 131.448L2.99999 131.448L2.99999 129.452L7.53222 129.452C7.92415 129.452 8.22493 129.4 8.43456 129.295C8.81738 129.104 9.00878 128.739 9.00878 128.201C9.00878 127.54 8.72851 127.087 8.16796 126.841C7.87174 126.713 7.49348 126.649 7.0332 126.649L2.99999 126.649L2.99999 124.708L10.4375 124.708L10.4375 126.588L9.35058 126.588C9.73339 126.839 10.0091 127.076 10.1777 127.299C10.4785 127.7 10.6289 128.208 10.6289 128.823ZM6.11035 134.935C5.65006 134.998 5.30598 135.124 5.07812 135.311C4.66341 135.652 4.45605 136.238 4.45605 137.067C4.45605 137.564 4.51074 137.967 4.62011 138.277C4.82975 138.865 5.21939 139.159 5.78906 139.159C6.12174 139.159 6.37923 139.013 6.56152 138.722C6.73925 138.43 6.89648 137.972 7.0332 137.348L7.27245 136.281C7.50943 135.233 7.76692 134.508 8.04492 134.107C8.50976 133.428 9.23665 133.089 10.2256 133.089C11.1279 133.089 11.8776 133.417 12.4746 134.073C13.0716 134.729 13.3701 135.693 13.3701 136.965C13.3701 138.027 13.0876 138.931 12.5225 139.679C11.9619 140.431 11.1462 140.825 10.0752 140.861L10.0752 138.838C10.6813 138.801 11.112 138.537 11.3672 138.045C11.5358 137.717 11.6201 137.309 11.6201 136.821C11.6201 136.279 11.5107 135.846 11.292 135.522C11.0732 135.199 10.7679 135.037 10.376 135.037C10.0159 135.037 9.74706 135.197 9.56933 135.516C9.45084 135.721 9.31184 136.158 9.15234 136.828L8.73535 138.564C8.55305 139.326 8.30924 139.9 8.0039 140.287C7.52994 140.889 6.84407 141.189 5.94628 141.189C5.02571 141.189 4.26008 140.836 3.64941 140.13C3.04329 139.428 2.74023 138.435 2.74023 137.149C2.74023 135.837 3.03873 134.805 3.63574 134.053C4.2373 133.301 5.06217 132.925 6.11035 132.925L6.11035 134.935ZM6.62304 146.699C6.54557 146.576 6.48176 146.451 6.43163 146.323C6.38606 146.2 6.34277 146.029 6.30175 145.811L6.21972 145.373C6.1468 144.963 6.05794 144.669 5.95312 144.491C5.77538 144.19 5.49967 144.04 5.12597 144.04C4.79329 144.04 4.55175 144.131 4.40136 144.313C4.25553 144.5 4.18261 144.726 4.18261 144.99C4.18261 145.41 4.30566 145.795 4.55175 146.146C4.79785 146.501 5.24674 146.686 5.89843 146.699L6.62304 146.699ZM7.53222 145.517C7.57779 145.877 7.63476 146.134 7.70312 146.289C7.82161 146.567 8.00618 146.706 8.25683 146.706C8.56217 146.706 8.7718 146.599 8.88574 146.385C9.00423 146.175 9.06347 145.865 9.06347 145.455C9.06347 144.995 8.94954 144.669 8.72167 144.478C8.55305 144.341 8.32519 144.25 8.03808 144.204L8.03808 142.324C8.68977 142.365 9.22525 142.548 9.64453 142.871C10.3008 143.386 10.6289 144.27 10.6289 145.523C10.6289 146.339 10.4671 147.064 10.1435 147.697C9.81998 148.331 9.2093 148.647 8.31152 148.647L4.89355 148.647C4.65657 148.647 4.36946 148.652 4.03222 148.661C3.77701 148.675 3.60383 148.714 3.51269 148.777C3.42154 148.841 3.34635 148.937 3.2871 149.064L2.99999 149.064L2.99999 146.945C3.15038 146.886 3.29166 146.845 3.42382 146.822C3.55598 146.799 3.70637 146.781 3.87499 146.768C3.58333 146.499 3.33495 146.189 3.12988 145.838C2.88834 145.419 2.76757 144.945 2.76757 144.416C2.76757 143.742 2.95898 143.183 3.34179 142.741C3.72916 142.304 4.27604 142.085 4.98242 142.085C5.89843 142.085 6.56152 142.438 6.97167 143.145C7.19498 143.532 7.35449 144.102 7.45019 144.854L7.53222 145.517ZM13.1787 153.132C13.1787 153.255 13.1741 153.367 13.165 153.467C13.1605 153.567 13.1514 153.704 13.1377 153.877L11.5518 153.877C11.5654 153.768 11.5745 153.583 11.5791 153.323C11.5882 153.068 11.5312 152.89 11.4082 152.79C11.2897 152.694 11.1575 152.646 11.0117 152.646C10.8659 152.646 10.6562 152.646 10.3828 152.646L10.3828 153.925L9.00878 153.925L9.00878 152.646L2.99999 152.646L2.99999 150.705L9.00878 150.705L9.00878 149.618L10.3828 149.618L10.3828 150.685L10.8613 150.685C11.6588 150.685 12.208 150.819 12.5088 151.088C12.9554 151.37 13.1787 152.052 13.1787 153.132ZM9.04296 157.985C9.04296 157.534 8.90169 157.183 8.61913 156.933C8.33658 156.687 7.95377 156.532 7.4707 156.468L7.4707 159.496C7.98567 159.464 8.37532 159.307 8.63964 159.024C8.90852 158.746 9.04296 158.4 9.04296 157.985ZM10.6494 157.985C10.6494 158.605 10.5332 159.163 10.3008 159.66C10.0684 160.157 9.70149 160.567 9.20019 160.891C8.75813 161.182 8.24544 161.371 7.6621 161.458C7.32031 161.508 6.82812 161.529 6.18554 161.52L6.18554 156.42C5.43814 156.447 4.91406 156.682 4.61327 157.124C4.42643 157.393 4.333 157.716 4.333 158.095C4.333 158.496 4.44693 158.822 4.6748 159.072C4.79784 159.209 4.96874 159.33 5.18749 159.435L5.18749 161.424C4.74544 161.374 4.29654 161.144 3.84081 160.733C3.1162 160.095 2.7539 159.202 2.7539 158.054C2.7539 157.106 3.05924 156.27 3.66992 155.545C4.28059 154.82 5.27408 154.458 6.65038 154.458C7.9401 154.458 8.92903 154.784 9.61718 155.436C10.3053 156.092 10.6494 156.942 10.6494 157.985ZM11.8594 163.317L13.0762 163.317L13.0762 167.795L11.8594 167.795L11.8594 166.284L8.0039 166.284L8.0039 164.808L11.8594 164.808L11.8594 163.317ZM13.0762 170.352L10.1572 171.274L13.0762 172.184L13.0762 174.289L8.0039 174.289L8.0039 172.942L11.6816 172.942L8.0039 171.842L8.0039 170.693L11.6816 169.593L8.0039 169.593L8.0039 168.246L13.0762 168.246L13.0762 170.352Z" fill="white"/>
</svg>
