<svg width="15" height="128" viewBox="0 0 15 128" fill="none" xmlns="http://www.w3.org/2000/svg">
<path d="M8.95605 0.628906C10.7152 0.628906 12.071 1.10059 13.0234 2.04395C13.8529 2.86426 14.2676 3.90788 14.2676 5.1748C14.2676 6.87012 13.7116 8.1097 12.5996 8.89355C11.9753 9.3265 11.3486 9.55892 10.7197 9.59082L10.7197 7.48535C11.2028 7.34863 11.5674 7.17318 11.8135 6.95898C12.251 6.57617 12.4697 6.00879 12.4697 5.25684C12.4697 4.49121 12.1598 3.88737 11.54 3.44531C10.9248 3.00325 10.0521 2.78223 8.92187 2.78223C7.79167 2.78223 6.94401 3.01465 6.37891 3.47949C5.81836 3.94889 5.53809 4.54362 5.53809 5.26367C5.53809 6.00195 5.77962 6.56478 6.2627 6.95215C6.52246 7.16634 6.91211 7.34408 7.43164 7.48535L7.43164 9.57031C6.33333 9.38802 5.4401 8.9209 4.75195 8.16894C4.0638 7.42155 3.71973 6.46224 3.71973 5.29101C3.71973 3.8418 4.18457 2.70247 5.11426 1.87305C6.0485 1.04362 7.3291 0.628906 8.95605 0.628906ZM5.37402 14.3691C5.37402 14.9388 5.57682 15.3763 5.98242 15.6816C6.38802 15.987 6.96452 16.1396 7.71191 16.1396C8.45931 16.1396 9.03353 15.987 9.43457 15.6816C9.84017 15.3763 10.043 14.9388 10.043 14.3691C10.043 13.7995 9.84017 13.3597 9.43457 13.0498C9.03353 12.7445 8.45931 12.5918 7.71191 12.5918C6.96452 12.5918 6.38802 12.7445 5.98242 13.0498C5.57682 13.3597 5.37402 13.7995 5.37402 14.3691ZM7.71191 18.1836C6.61816 18.1836 5.68164 17.8691 4.90234 17.2402C4.1276 16.6113 3.74023 15.6566 3.74023 14.376C3.74023 13.0954 4.1276 12.1406 4.90234 11.5117C5.68164 10.8828 6.61816 10.5684 7.71191 10.5684C8.78743 10.5684 9.7194 10.8828 10.5078 11.5117C11.2962 12.1406 11.6904 13.0954 11.6904 14.376C11.6904 15.6566 11.2962 16.6113 10.5078 17.2402C9.7194 17.8691 8.78743 18.1836 7.71191 18.1836ZM11.6289 23.7139C11.6289 24.484 11.4261 25.113 11.0205 25.6006C10.6195 26.0928 9.95182 26.3389 9.01758 26.3389L4 26.3389L4 24.3428L8.53223 24.3428C8.92415 24.3428 9.22493 24.2904 9.43457 24.1855C9.81738 23.9941 10.0088 23.6296 10.0088 23.0918C10.0088 22.431 9.72851 21.9775 9.16797 21.7314C8.87174 21.6038 8.49349 21.54 8.0332 21.54L4 21.54L4 19.5986L11.4375 19.5986L11.4375 21.4785L10.3506 21.4785C10.7334 21.7292 11.0091 21.9661 11.1777 22.1895C11.4785 22.5905 11.6289 23.0986 11.6289 23.7139ZM10.043 31.083C10.043 30.6318 9.90169 30.2809 9.61914 30.0303C9.33659 29.7842 8.95377 29.6292 8.4707 29.5654L8.4707 32.5937C8.98568 32.5618 9.37532 32.4046 9.63965 32.1221C9.90853 31.8441 10.043 31.4977 10.043 31.083ZM11.6494 31.083C11.6494 31.7028 11.5332 32.2611 11.3008 32.7578C11.0684 33.2546 10.7015 33.6647 10.2002 33.9883C9.75814 34.2799 9.24544 34.4691 8.66211 34.5557C8.32031 34.6058 7.82812 34.6263 7.18555 34.6172L7.18555 29.5176C6.43815 29.5449 5.91406 29.7796 5.61328 30.2217C5.42643 30.4906 5.33301 30.8141 5.33301 31.1924C5.33301 31.5934 5.44694 31.9193 5.6748 32.1699C5.79785 32.3066 5.96875 32.4274 6.1875 32.5322L6.1875 34.5215C5.74544 34.4714 5.29655 34.2412 4.84082 33.8311C4.11621 33.193 3.7539 32.2998 3.7539 31.1514C3.7539 30.2034 4.05924 29.3672 4.66992 28.6426C5.2806 27.918 6.27409 27.5557 7.65039 27.5557C8.9401 27.5557 9.92904 27.8815 10.6172 28.5332C11.3053 29.1895 11.6494 30.0394 11.6494 31.083ZM8.77832 40.3867C9.05631 40.3503 9.30696 40.2568 9.53027 40.1064C9.83105 39.8877 9.98144 39.5482 9.98144 39.0879C9.98144 38.4316 9.6556 37.9827 9.0039 37.7412C8.65755 37.6136 8.19726 37.5498 7.62305 37.5498C7.07617 37.5498 6.63639 37.6136 6.30371 37.7412C5.68392 37.9736 5.37402 38.4111 5.37402 39.0537C5.37402 39.5094 5.49707 39.833 5.74316 40.0244C5.98926 40.2158 6.30827 40.332 6.70019 40.373L6.70019 42.3623C6.10775 42.3167 5.5472 42.1025 5.01855 41.7197C4.16634 41.109 3.74023 40.2044 3.74023 39.0059C3.74023 37.8073 4.0957 36.9255 4.80664 36.3604C5.51758 35.7952 6.44043 35.5127 7.57519 35.5127C8.85579 35.5127 9.85156 35.8249 10.5625 36.4492C11.2734 37.0736 11.6289 37.9349 11.6289 39.0332C11.6289 39.9674 11.4193 40.7308 11 41.3232C10.5807 41.9202 9.84017 42.2734 8.77832 42.3828L8.77832 40.3867ZM9.99512 42.9639L11.3828 42.9639L11.3828 44.0029L13.4609 44.0029L13.4609 45.9307L11.3828 45.9307L11.3828 47.1406L9.99512 47.1406L9.99512 45.9307L6.05762 45.9307C5.75228 45.9307 5.56087 45.9694 5.4834 46.0469C5.41048 46.1243 5.37402 46.3613 5.37402 46.7578C5.37402 46.8171 5.37402 46.8786 5.37402 46.9424C5.37858 47.0107 5.38314 47.0768 5.38769 47.1406L3.93164 47.1406L3.89746 46.2178C3.86556 45.2972 4.02506 44.6683 4.37597 44.3311C4.59928 44.1123 4.94336 44.0029 5.4082 44.0029L9.99512 44.0029L9.99512 42.9639ZM7.62304 52.5C7.54557 52.377 7.48177 52.2516 7.43164 52.124C7.38607 52.001 7.34277 51.8301 7.30176 51.6113L7.21972 51.1738C7.14681 50.7637 7.05794 50.4697 6.95312 50.292C6.77539 49.9912 6.49967 49.8408 6.12597 49.8408C5.79329 49.8408 5.55176 49.932 5.40136 50.1143C5.25553 50.3011 5.18261 50.5267 5.18261 50.791C5.18261 51.2103 5.30566 51.5954 5.55176 51.9463C5.79785 52.3018 6.24674 52.4863 6.89844 52.5L7.62304 52.5ZM8.53222 51.3174C8.5778 51.6774 8.63476 51.9349 8.70312 52.0898C8.82161 52.3678 9.00618 52.5068 9.25683 52.5068C9.56217 52.5068 9.77181 52.3997 9.88574 52.1855C10.0042 51.9759 10.0635 51.666 10.0635 51.2559C10.0635 50.7956 9.94954 50.4697 9.72168 50.2783C9.55306 50.1416 9.32519 50.0505 9.03808 50.0049L9.03808 48.125C9.68978 48.166 10.2253 48.3483 10.6445 48.6719C11.3008 49.1868 11.6289 50.071 11.6289 51.3242C11.6289 52.14 11.4671 52.8646 11.1436 53.498C10.82 54.1315 10.2093 54.4482 9.31152 54.4482L5.89355 54.4482C5.65657 54.4482 5.36946 54.4528 5.03222 54.4619C4.77702 54.4756 4.60384 54.5143 4.51269 54.5781C4.42155 54.6419 4.34635 54.7376 4.28711 54.8652L4 54.8652L4 52.7461C4.15039 52.6868 4.29166 52.6458 4.42383 52.623C4.55599 52.6003 4.70638 52.582 4.875 52.5684C4.58333 52.2995 4.33496 51.9896 4.12988 51.6387C3.88834 51.2194 3.76758 50.7454 3.76758 50.2168C3.76758 49.5423 3.95898 48.984 4.34179 48.542C4.72916 48.1045 5.27604 47.8857 5.98242 47.8857C6.89844 47.8857 7.56152 48.2389 7.97168 48.9453C8.19498 49.3327 8.35449 49.9023 8.45019 50.6543L8.53222 51.3174ZM11.6289 58.9326C11.6289 59.3838 11.5286 59.7848 11.3281 60.1357C11.1322 60.4867 10.8587 60.7715 10.5078 60.9902L14.0625 60.9902L14.0625 62.9658L4 62.9658L4 61.0723L5.03222 61.0723C4.59017 60.7943 4.26888 60.4775 4.06836 60.1221C3.86784 59.7666 3.76758 59.3245 3.76758 58.7959C3.76758 57.9255 4.11849 57.1917 4.82031 56.5947C5.52669 56.0023 6.43131 55.7061 7.53418 55.7061C8.80566 55.7061 9.80599 55.9977 10.5352 56.5811C11.2643 57.1689 11.6289 57.9528 11.6289 58.9326ZM5.4082 59.3564C5.4082 59.9079 5.61328 60.3271 6.02343 60.6143C6.43359 60.9014 6.96452 61.0449 7.61621 61.0449C8.52767 61.0449 9.17936 60.8148 9.57129 60.3545C9.80827 60.0719 9.92676 59.7438 9.92676 59.3701C9.92676 58.8005 9.71028 58.3812 9.27734 58.1123C8.84896 57.848 8.31575 57.7158 7.67773 57.7158C6.98958 57.7158 6.43815 57.8503 6.02343 58.1191C5.61328 58.3926 5.4082 58.805 5.4082 59.3564ZM5.37402 68.0859C5.37402 68.6556 5.57682 69.0931 5.98242 69.3984C6.38802 69.7038 6.96452 69.8564 7.71191 69.8564C8.45931 69.8564 9.03353 69.7038 9.43457 69.3984C9.84017 69.0931 10.043 68.6556 10.043 68.0859C10.043 67.5163 9.84017 67.0765 9.43457 66.7666C9.03353 66.4613 8.45931 66.3086 7.71191 66.3086C6.96452 66.3086 6.38802 66.4613 5.98242 66.7666C5.57682 67.0765 5.37402 67.5163 5.37402 68.0859ZM7.71191 71.9004C6.61816 71.9004 5.68164 71.5859 4.90234 70.957C4.1276 70.3281 3.74023 69.3734 3.74023 68.0928C3.74023 66.8122 4.1276 65.8574 4.90234 65.2285C5.68164 64.5996 6.61816 64.2852 7.71191 64.2852C8.78743 64.2852 9.7194 64.5996 10.5078 65.2285C11.2962 65.8574 11.6904 66.8122 11.6904 68.0928C11.6904 69.3734 11.2962 70.3281 10.5078 70.957C9.7194 71.5859 8.78743 71.9004 7.71191 71.9004ZM7.62304 81.3066C7.54557 81.1836 7.48177 81.0583 7.43164 80.9307C7.38606 80.8076 7.34277 80.6367 7.30175 80.418L7.21972 79.9805C7.14681 79.5703 7.05794 79.2764 6.95312 79.0986C6.77539 78.7979 6.49967 78.6475 6.12597 78.6475C5.79329 78.6475 5.55175 78.7386 5.40136 78.9209C5.25553 79.1077 5.18261 79.3333 5.18261 79.5977C5.18261 80.0169 5.30566 80.402 5.55175 80.7529C5.79785 81.1084 6.24674 81.293 6.89843 81.3066L7.62304 81.3066ZM8.53222 80.124C8.5778 80.484 8.63476 80.7415 8.70312 80.8965C8.82161 81.1745 9.00618 81.3135 9.25683 81.3135C9.56217 81.3135 9.77181 81.2064 9.88574 80.9922C10.0042 80.7826 10.0635 80.4727 10.0635 80.0625C10.0635 79.6022 9.94954 79.2764 9.72168 79.085C9.55306 78.9482 9.32519 78.8571 9.03808 78.8115L9.03808 76.9316C9.68978 76.9727 10.2253 77.1549 10.6445 77.4785C11.3008 77.9935 11.6289 78.8776 11.6289 80.1309C11.6289 80.9466 11.4671 81.6712 11.1436 82.3047C10.82 82.9382 10.2093 83.2549 9.31152 83.2549L5.89355 83.2549C5.65657 83.2549 5.36946 83.2594 5.03222 83.2686C4.77701 83.2822 4.60384 83.321 4.51269 83.3848C4.42155 83.4486 4.34635 83.5443 4.28711 83.6719L4 83.6719L4 81.5527C4.15039 81.4935 4.29166 81.4525 4.42382 81.4297C4.55599 81.4069 4.70638 81.3887 4.875 81.375C4.58333 81.1061 4.33496 80.7962 4.12988 80.4453C3.88834 80.026 3.76757 79.5521 3.76757 79.0234C3.76757 78.349 3.95898 77.7907 4.34179 77.3486C4.72916 76.9111 5.27604 76.6924 5.98242 76.6924C6.89843 76.6924 7.56152 77.0456 7.97168 77.752C8.19498 78.1393 8.35449 78.709 8.45019 79.4609L8.53222 80.124ZM5.37402 88.334C5.37402 88.9036 5.57682 89.3411 5.98242 89.6465C6.38802 89.9518 6.96451 90.1045 7.71191 90.1045C8.45931 90.1045 9.03352 89.9518 9.43457 89.6465C9.84017 89.3411 10.043 88.9036 10.043 88.334C10.043 87.7643 9.84017 87.3245 9.43457 87.0146C9.03352 86.7093 8.45931 86.5566 7.71191 86.5566C6.96451 86.5566 6.38802 86.7093 5.98242 87.0146C5.57682 87.3245 5.37402 87.7643 5.37402 88.334ZM7.71191 92.1484C6.61816 92.1484 5.68164 91.834 4.90234 91.2051C4.1276 90.5762 3.74023 89.6214 3.74023 88.3408C3.74023 87.0602 4.1276 86.1055 4.90234 85.4766C5.68164 84.8477 6.61816 84.5332 7.71191 84.5332C8.78743 84.5332 9.7194 84.8477 10.5078 85.4766C11.2962 86.1055 11.6904 87.0602 11.6904 88.3408C11.6904 89.6214 11.2962 90.5762 10.5078 91.2051C9.7194 91.834 8.78743 92.1484 7.71191 92.1484Z" fill="white"/>
</svg>
